Coordinates
version=1
nRows=9
nColumns=63
inDegrees=yes

Units are S.I. units (second, meters, Newtons, ...)
If the header above contains a line with 'inDegrees', this indicates whether rotational values are in degrees (yes) or radians (no).

endheader
time	pelvis_tilt	pelvis_list	pelvis_rotation	pelvis_tx	pelvis_ty	pelvis_tz	hip_flexion_r	hip_adduction_r	hip_rotation_r	knee_angle_r	knee_angle_r_beta	ankle_angle_r	subtalar_angle_r	mtp_angle_r	hip_flexion_l	hip_adduction_l	hip_rotation_l	knee_angle_l	knee_angle_l_beta	ankle_angle_l	subtalar_angle_l	mtp_angle_l	L5_S1_Flex_Ext	L5_S1_Lat_Bending	L5_S1_axial_rotation	L4_L5_Flex_Ext	L4_L5_Lat_Bending	L4_L5_axial_rotation	L3_L4_Flex_Ext	L3_L4_Lat_Bending	L3_L4_axial_rotation	L2_L3_Flex_Ext	L2_L3_Lat_Bending	L2_L3_axial_rotation	L1_L2_Flex_Ext	L1_L2_Lat_Bending	L1_L2_axial_rotation	L1_T12_Flex_Ext	L1_T12_Lat_Bending	L1_T12_axial_rotation	Abs_r3	Abs_r2	Abs_r1	Abs_t1	Abs_t2	neck_flexion	neck_bending	neck_rotation	arm_flex_r	arm_add_r	arm_rot_r	elbow_flex_r	pro_sup_r	wrist_flex_r	wrist_dev_r	arm_flex_l	arm_add_l	arm_rot_l	elbow_flex_l	pro_sup_l	wrist_flex_l	wrist_dev_l
      5.60714286	      7.13894499	     10.38383978	     75.13520677	      0.20865381	      1.00648350	      0.54412922	     -1.57995233	      7.34130685	      3.60096000	     20.95458190	      0.36572645	     26.15537252	     -7.58941190	      0.00000000	     -0.84800267	     -8.38963299	     -3.13073435	     22.97692740	      0.40102304	     36.27787373	     -8.81863142	      0.00000000	     -2.01089758	      1.80690594	     10.65913284	     -3.73443790	      2.40318490	     11.32532864	     -3.30370364	      4.39331110	     11.32532864	     -2.29825485	      4.39331110	      9.32674123	     -1.86731950	      3.68464259	      8.66054543	     -1.14902688	      2.79889730	      7.99434963	    -14.36364035	     20.44008135	     59.28289909	      0.00000000	      0.00000000	    -26.36884004	     12.57004710	    -24.88788007	    -74.72991767	     14.25871307	    -68.05289850	    106.98082480	     74.35788372	     24.48726347	     26.44673180	   -130.87652726	   -195.68307927	     16.64380503	      0.06522022	      0.90038997	    -69.85741591	    -24.42832373
      5.62500000	      7.16396281	     10.33106135	     74.60781206	      0.20757487	      1.00674317	      0.54531645	     -1.47493912	      7.26228417	      4.11525744	     20.80414807	      0.36310088	     26.23867468	     -7.32004955	      0.00000000	     -0.98569425	     -8.29003065	     -3.58025011	     22.65995656	      0.39549085	     36.16574368	     -8.83938255	      0.00000000	     -2.04288692	      1.77909972	     10.60551373	     -3.79384531	      2.36620263	     11.26835834	     -3.35625893	      4.32570306	     11.26835834	     -2.33481547	      4.32570306	      9.27982452	     -1.89702480	      3.62794015	      8.61697991	     -1.16730559	      2.75582547	      7.95413530	    -14.59213702	     20.12553187	     58.98468573	      0.00000000	      0.00000000	    -26.93309601	     12.60761709	    -24.23605753	    -76.13498436	     13.59503744	    -62.65139618	    108.25048303	     78.76847077	     27.44951950	     18.17951683	   -131.86724540	   -195.49772172	     17.86950564	      0.06455630	      0.90803533	    -69.85677205	    -24.43384761
      5.64285714	      7.14644942	     10.45009277	     74.28136810	      0.20597767	      1.00738477	      0.54722394	     -1.48422190	      7.06170140	      4.24650034	     20.64825412	      0.36038002	     26.43415818	     -6.97797738	      0.00000000	     -1.23510096	     -8.11635912	     -3.97269125	     22.27021980	      0.38868866	     35.93297265	     -8.73509726	      0.00000000	     -2.09403271	      1.76491078	     10.55419068	     -3.88882814	      2.34733134	     11.21382759	     -3.44028633	      4.29120408	     11.21382759	     -2.39326998	      4.29120408	      9.23491684	     -1.94451877	      3.59900607	      8.57527992	     -1.19653029	      2.73384680	      7.91564301	    -14.95746622	     19.96502376	     58.69924228	      0.00000000	      0.00000000	    -27.26927239	     12.85729390	    -23.78703706	    -77.16223903	     13.41401139	    -57.77810998	    110.85699697	     83.12175379	     27.40899697	      8.98805737	   -132.70230679	   -195.68124417	     19.02995795	      0.06353820	      0.91335165	    -69.85853211	    -24.45270038
      5.66071429	      7.22660144	     10.68284907	     74.10503647	      0.20366055	      1.00843356	      0.54981681	     -1.61489298	      6.85848331	      3.91278564	     20.42301260	      0.35644881	     26.55527944	     -6.42195344	      0.00000000	     -1.55690852	     -7.99574705	     -4.26013702	     21.85041974	      0.38136177	     35.61246852	     -8.60266808	      0.00000000	     -2.16075846	      1.77769746	     10.50102825	     -4.01274453	      2.36433762	     11.15734252	     -3.54991007	      4.32229359	     11.15734252	     -2.46953084	      4.32229359	      9.18839972	     -2.00648030	      3.62508065	      8.53208545	     -1.23465738	      2.75365336	      7.87577119	    -15.43408158	     20.10966916	     58.40356882	      0.00000000	      0.00000000	    -27.48748798	     13.05787100	    -23.61296240	    -77.76839675	     13.16808285	    -52.98496220	    113.71014495	     85.89248034	     25.31442297	      0.53973484	   -133.58843638	   -196.24156948	     19.74612779	      0.06231593	      0.88901984	    -69.86162362	    -24.47025975
      5.67857143	      7.43348798	     10.97247644	     74.15697941	      0.20053561	      1.00979983	      0.55261212	     -1.83663374	      6.71957567	      3.17700745	     20.14892815	      0.35166514	     26.62034758	     -5.74523183	      0.00000000	     -1.88392851	     -7.97425173	     -4.34722844	     21.44578434	      0.37429955	     35.28506186	     -8.44711188	      0.00000000	     -2.23060696	      1.81714472	     10.42258212	     -4.14246018	      2.41680247	     11.07399350	     -3.66466417	      4.41820566	     11.07399350	     -2.54936069	      4.41820566	      9.11975935	     -2.07134162	      3.70552151	      8.46834797	     -1.27456881	      2.81475717	      7.81693659	    -15.93300242	     20.55590446	     57.96727496	      0.00000000	      0.00000000	    -27.68584177	     12.95862351	    -23.56756513	    -78.07257079	     12.51424231	    -47.69306080	    116.42893762	     87.78099751	     19.59299358	     -5.92222399	   -134.68424839	   -197.09852588	     19.73528123	      0.06114088	      0.83049313	    -69.86542296	    -24.48069252
      5.69642857	      7.86797791	     11.26768865	     74.35453271	      0.19646470	      1.01141924	      0.55517866	     -2.19968141	      6.75528355	      2.15672918	     19.73191198	      0.34438683	     26.45881296	     -4.94071273	      0.00000000	     -2.27578923	     -8.12738114	     -4.19797744	     20.98442922	      0.36624738	     34.91252594	     -8.38138400	      0.00000000	     -2.29040358	      1.89226021	     10.34146502	     -4.25350848	      2.51670608	     10.98780658	     -3.76290404	      4.60084148	     10.98780658	     -2.61770225	      4.60084148	      9.04878189	     -2.12686876	      3.85869702	      8.40244033	     -1.30873660	      2.93111107	      7.75609876	    -16.36012371	     21.40562595	     57.51612599	      0.00000000	      0.00000000	    -27.82300709	     12.53672397	    -23.78198155	    -77.86148380	     11.34976796	    -42.80994360	    118.41155913	     88.43817753	     13.66401659	    -10.51632105	   -136.17133338	   -198.27917663	     18.61784622	      0.06015405	      0.77857703	    -69.86960470	    -24.49396498
      5.71428571	      8.12473000	     11.31258523	     74.51337617	      0.19246288	      1.01254858	      0.55717848	     -2.24009755	      6.68582465	      1.25360952	     19.46183086	      0.33967303	     26.26015405	     -4.07267742	      0.00000000	     -2.42627938	     -8.10755176	     -3.87900073	     20.51726518	      0.35809383	     34.36243197	     -8.73202045	      0.00000000	     -2.31119614	      1.93361531	     10.31942573	     -4.29212235	      2.57170836	     10.96438984	     -3.79706414	      4.70139226	     10.96438984	     -2.64146607	      4.70139226	      9.02949752	     -2.14617674	      3.94302834	      8.38453341	     -1.32061748	      2.99517011	      7.73956930	    -16.50864292	     21.87344311	     57.39355011	      0.00000000	      0.00000000	    -27.94375197	     11.89326515	    -24.52353586	    -77.14550163	      9.72693373	    -37.66891583	    119.68551906	     88.73332210	      4.97060162	    -13.94142960	   -137.78430225	   -199.55571590	     18.47418024	      0.05856237	      0.67632876	    -69.87447043	    -24.47826981
      5.73214286	      8.56025223	     11.17577092	     74.49696619	      0.18837229	      1.01322835	      0.55836704	     -2.20607974	      6.91216640	      1.03711699	     19.21185954	      0.33531020	     25.72572806	     -3.90571332	      0.00000000	     -2.56555091	     -8.31947040	     -3.92405903	     20.04393846	      0.34983272	     33.87421221	     -8.81909600	      0.00000000	     -2.29227773	      1.97777987	     10.35246206	     -4.25698897	      2.63044723	     10.99949094	     -3.76598308	      4.80877398	     10.99949094	     -2.61984422	      4.80877398	      9.05840430	     -2.12860910	      4.03308872	      8.41137542	     -1.30980750	      3.06358102	      7.76434655	    -16.37351061	     22.37304147	     57.57728825	      0.00000000	      0.00000000	    -27.98818236	     11.37810681	    -25.63705203	    -75.43369488	      8.11539842	    -35.37622051	    120.34975138	     88.76790161	      4.56936625	    -13.58484321	   -139.67647177	   -200.98938326	     18.40723098	      0.05668287	      0.61258067	    -69.87877390	    -24.46346810
      5.75000000	      9.06284904	     11.11019730	     74.45830131	      0.18401754	      1.01352288	      0.55851449	     -2.36934820	      7.07667358	      0.47295414	     18.94431876	      0.33064074	     25.40341737	     -2.80275422	      0.00000000	     -2.94737082	     -8.35871229	     -2.81011353	     19.43547182	      0.33921297	     32.96394355	    -10.36418844	      0.00000000	     -2.27444115	      2.02534841	     10.37957372	     -4.22386465	      2.69371339	     11.02829708	     -3.73667936	      4.92443214	     11.02829708	     -2.59945879	      4.92443214	      9.08212700	     -2.11204605	      4.13009049	      8.43340365	     -1.29961567	      3.13726469	      7.78468029	    -16.24610566	     22.91114634	     57.72807516	      0.00000000	      0.00000000	    -28.05395235	     10.37766818	    -26.64669962	    -73.69562609	      5.60560618	    -31.52988454	    121.17549273	     88.75728428	     -5.24514148	    -12.36012556	   -141.68602671	   -202.47773055	     17.86896420	      0.05579282	      0.59710731	    -69.88220916	    -24.47233015
